<svg aria-roledescription="er" role="graphics-document document" viewBox="0 0 771.1875 991.5" style="max-width: 771.188px; background-color: white;" xmlns:xlink="http://www.w3.org/1999/xlink" xmlns="http://www.w3.org/2000/svg" width="100%" id="my-svg"><style>#my-svg{font-family:"trebuchet ms",verdana,arial,sans-serif;font-size:16px;fill:#000000;}#my-svg .error-icon{fill:#552222;}#my-svg .error-text{fill:#552222;stroke:#552222;}#my-svg .edge-thickness-normal{stroke-width:2px;}#my-svg .edge-thickness-thick{stroke-width:3.5px;}#my-svg .edge-pattern-solid{stroke-dasharray:0;}#my-svg .edge-pattern-dashed{stroke-dasharray:3;}#my-svg .edge-pattern-dotted{stroke-dasharray:2;}#my-svg .marker{fill:#000000;stroke:#000000;}#my-svg .marker.cross{stroke:#000000;}#my-svg svg{font-family:"trebuchet ms",verdana,arial,sans-serif;font-size:16px;}#my-svg .entityBox{fill:#cde498;stroke:#13540c;}#my-svg .attributeBoxOdd{fill:#ffffff;stroke:#13540c;}#my-svg .attributeBoxEven{fill:#f2f2f2;stroke:#13540c;}#my-svg .relationshipLabelBox{fill:hsl(78.1578947368, 58.4615384615%, 84.5098039216%);opacity:0.7;background-color:hsl(78.1578947368, 58.4615384615%, 84.5098039216%);}#my-svg .relationshipLabelBox rect{opacity:0.5;}#my-svg .relationshipLine{stroke:#000000;}#my-svg .entityTitleText{text-anchor:middle;font-size:18px;fill:#000000;}#my-svg #MD_PARENT_START{fill:#f5f5f5!important;stroke:#000000!important;stroke-width:1;}#my-svg #MD_PARENT_END{fill:#f5f5f5!important;stroke:#000000!important;stroke-width:1;}#my-svg :root{--mermaid-font-family:"trebuchet ms",verdana,arial,sans-serif;}</style><g/><defs><marker orient="auto" markerHeight="240" markerWidth="190" refY="7" refX="0" id="MD_PARENT_START"><path d="M 18,7 L9,13 L1,7 L9,1 Z"/></marker></defs><defs><marker orient="auto" markerHeight="28" markerWidth="20" refY="7" refX="19" id="MD_PARENT_END"><path d="M 18,7 L9,13 L1,7 L9,1 Z"/></marker></defs><defs><marker orient="auto" markerHeight="18" markerWidth="18" refY="9" refX="0" id="ONLY_ONE_START"><path d="M9,0 L9,18 M15,0 L15,18" fill="none" stroke="gray"/></marker></defs><defs><marker orient="auto" markerHeight="18" markerWidth="18" refY="9" refX="18" id="ONLY_ONE_END"><path d="M3,0 L3,18 M9,0 L9,18" fill="none" stroke="gray"/></marker></defs><defs><marker orient="auto" markerHeight="18" markerWidth="30" refY="9" refX="0" id="ZERO_OR_ONE_START"><circle r="6" cy="9" cx="21" fill="white" stroke="gray"/><path d="M9,0 L9,18" fill="none" stroke="gray"/></marker></defs><defs><marker orient="auto" markerHeight="18" markerWidth="30" refY="9" refX="30" id="ZERO_OR_ONE_END"><circle r="6" cy="9" cx="9" fill="white" stroke="gray"/><path d="M21,0 L21,18" fill="none" stroke="gray"/></marker></defs><defs><marker orient="auto" markerHeight="36" markerWidth="45" refY="18" refX="18" id="ONE_OR_MORE_START"><path d="M0,18 Q 18,0 36,18 Q 18,36 0,18 M42,9 L42,27" fill="none" stroke="gray"/></marker></defs><defs><marker orient="auto" markerHeight="36" markerWidth="45" refY="18" refX="27" id="ONE_OR_MORE_END"><path d="M3,9 L3,27 M9,18 Q27,0 45,18 Q27,36 9,18" fill="none" stroke="gray"/></marker></defs><defs><marker orient="auto" markerHeight="36" markerWidth="57" refY="18" refX="18" id="ZERO_OR_MORE_START"><circle r="6" cy="18" cx="48" fill="white" stroke="gray"/><path d="M0,18 Q18,0 36,18 Q18,36 0,18" fill="none" stroke="gray"/></marker></defs><defs><marker orient="auto" markerHeight="36" markerWidth="57" refY="18" refX="39" id="ZERO_OR_MORE_END"><circle r="6" cy="18" cx="9" fill="white" stroke="gray"/><path d="M21,18 Q39,0 57,18 Q39,36 21,18" fill="none" stroke="gray"/></marker></defs><path style="stroke: gray; fill: none;" marker-start="url(#ZERO_OR_MORE_START)" marker-end="url(#ZERO_OR_MORE_END)" d="M431.049,88.5L426.103,96.833C421.157,105.167,411.266,121.833,408.729,138.5C406.192,155.167,411.009,171.833,413.417,180.167L415.826,188.5" class="er relationshipLine"/><path style="stroke: gray; fill: none;" marker-start="url(#ZERO_OR_ONE_START)" marker-end="url(#ONLY_ONE_END)" d="M486.924,188.5L489.333,180.167C491.741,171.833,496.558,155.167,494.021,138.5C491.484,121.833,481.593,105.167,476.647,96.833L471.701,88.5" class="er relationshipLine"/><path style="stroke: gray; fill: none;" marker-start="url(#ZERO_OR_ONE_START)" marker-end="url(#ONLY_ONE_END)" d="M373.047,353.305L332.078,375.171C291.109,397.037,209.172,440.768,168.203,482.218C127.234,523.667,127.234,562.833,127.234,582.417L127.234,602" class="er relationshipLine"/><path style="stroke: gray; fill: none;" marker-start="url(#ZERO_OR_MORE_START)" marker-end="url(#ZERO_OR_MORE_END)" d="M529.703,416.399L538.178,427.749C546.654,439.099,563.604,461.8,575.882,481.483C588.161,501.167,595.767,517.833,599.57,526.167L603.373,534.5" class="er relationshipLine"/><path style="stroke: gray; fill: none;" marker-start="url(#ZERO_OR_MORE_START)" marker-end="url(#ZERO_OR_MORE_END)" d="M373.047,410.36L363.257,422.717C353.466,435.073,333.885,459.787,332.062,488.018C330.238,516.25,346.172,548,354.139,563.875L362.106,579.75" class="er relationshipLine"/><path style="stroke: gray; fill: none;" marker-start="url(#ZERO_OR_ONE_START)" marker-end="url(#ONLY_ONE_END)" d="M423.925,579.75L428.5,563.875C433.075,548,442.225,516.25,446.8,492.042C451.375,467.833,451.375,451.167,451.375,442.833L451.375,434.5" class="er relationshipLine"/><path style="stroke: gray; fill: none;" marker-start="url(#ZERO_OR_ONE_START)" marker-end="url(#ONLY_ONE_END)" d="M342.302,736.25L330.317,752.125C318.333,768,294.364,799.75,282.379,823.958C270.395,848.167,270.395,864.833,270.395,873.167L270.395,881.5" class="er relationshipLine"/><path style="stroke: gray; fill: none;" marker-start="url(#ZERO_OR_ONE_START)" marker-end="url(#ONLY_ONE_END)" d="M460.448,736.25L472.433,752.125C484.417,768,508.386,799.75,520.371,823.958C532.355,848.167,532.355,864.833,532.355,873.167L532.355,881.5" class="er relationshipLine"/><path style="stroke: gray; fill: none;" marker-start="url(#ZERO_OR_ONE_START)" marker-end="url(#ZERO_OR_ONE_END)" d="M695.325,534.5L697.727,526.167C700.128,517.833,704.931,501.167,677.328,472.742C649.724,444.316,589.714,404.133,559.708,384.041L529.703,363.949" class="er relationshipLine"/><g transform="translate(20,602 )" id="entity-userStatus-d2085e6d-8826-59f3-aec7-7238960edc43"><rect height="112" width="214.46875" y="0" x="0" class="er entityBox"/><text style="dominant-baseline: middle; text-anchor: middle; font-size: 12px;" transform="translate(107.234375,12)" y="0" x="0" id="text-entity-userStatus-d2085e6d-8826-59f3-aec7-7238960edc43" class="er entityLabel">userStatus</text><rect height="22" width="107.234375" y="24" x="0" class="er attributeBoxOdd"/><text style="dominant-baseline: middle; font-size: 10.2px;" transform="translate(5,35)" y="0" x="0" id="text-entity-userStatus-d2085e6d-8826-59f3-aec7-7238960edc43-attr-1-type" class="er entityLabel">ACTIVE</text><rect height="22" width="107.234375" y="24" x="107.234375" class="er attributeBoxOdd"/><text style="dominant-baseline: middle; font-size: 10.2px;" transform="translate(112.234375,35)" y="0" x="0" id="text-entity-userStatus-d2085e6d-8826-59f3-aec7-7238960edc43-attr-1-name" class="er entityLabel">ACTIVE</text><rect height="22" width="107.234375" y="46" x="0" class="er attributeBoxEven"/><text style="dominant-baseline: middle; font-size: 10.2px;" transform="translate(5,57)" y="0" x="0" id="text-entity-userStatus-d2085e6d-8826-59f3-aec7-7238960edc43-attr-2-type" class="er entityLabel">INACTIVE</text><rect height="22" width="107.234375" y="46" x="107.234375" class="er attributeBoxEven"/><text style="dominant-baseline: middle; font-size: 10.2px;" transform="translate(112.234375,57)" y="0" x="0" id="text-entity-userStatus-d2085e6d-8826-59f3-aec7-7238960edc43-attr-2-name" class="er entityLabel">INACTIVE</text><rect height="22" width="107.234375" y="68" x="0" class="er attributeBoxOdd"/><text style="dominant-baseline: middle; font-size: 10.2px;" transform="translate(5,79)" y="0" x="0" id="text-entity-userStatus-d2085e6d-8826-59f3-aec7-7238960edc43-attr-3-type" class="er entityLabel">EMAILOTPREQUIRED</text><rect height="22" width="107.234375" y="68" x="107.234375" class="er attributeBoxOdd"/><text style="dominant-baseline: middle; font-size: 10.2px;" transform="translate(112.234375,79)" y="0" x="0" id="text-entity-userStatus-d2085e6d-8826-59f3-aec7-7238960edc43-attr-3-name" class="er entityLabel">EMAILOTPREQUIRED</text><rect height="22" width="107.234375" y="90" x="0" class="er attributeBoxEven"/><text style="dominant-baseline: middle; font-size: 10.2px;" transform="translate(5,101)" y="0" x="0" id="text-entity-userStatus-d2085e6d-8826-59f3-aec7-7238960edc43-attr-4-type" class="er entityLabel">MOBILEOTPREQUIRED</text><rect height="22" width="107.234375" y="90" x="107.234375" class="er attributeBoxEven"/><text style="dominant-baseline: middle; font-size: 10.2px;" transform="translate(112.234375,101)" y="0" x="0" id="text-entity-userStatus-d2085e6d-8826-59f3-aec7-7238960edc43-attr-4-name" class="er entityLabel">MOBILEOTPREQUIRED</text></g><g transform="translate(174.39453125,881.5 )" id="entity-otpType-3712e031-2ed0-57a5-a07a-7ed81185bb8c"><rect height="90" width="192" y="0" x="0" class="er entityBox"/><text style="dominant-baseline: middle; text-anchor: middle; font-size: 12px;" transform="translate(96,12)" y="0" x="0" id="text-entity-otpType-3712e031-2ed0-57a5-a07a-7ed81185bb8c" class="er entityLabel">otpType</text><rect height="22" width="96" y="24" x="0" class="er attributeBoxOdd"/><text style="dominant-baseline: middle; font-size: 10.2px;" transform="translate(5,35)" y="0" x="0" id="text-entity-otpType-3712e031-2ed0-57a5-a07a-7ed81185bb8c-attr-1-type" class="er entityLabel">FORGOTPASSWORD</text><rect height="22" width="96" y="24" x="96" class="er attributeBoxOdd"/><text style="dominant-baseline: middle; font-size: 10.2px;" transform="translate(101,35)" y="0" x="0" id="text-entity-otpType-3712e031-2ed0-57a5-a07a-7ed81185bb8c-attr-1-name" class="er entityLabel">FORGOTPASSWORD</text><rect height="22" width="96" y="46" x="0" class="er attributeBoxEven"/><text style="dominant-baseline: middle; font-size: 10.2px;" transform="translate(5,57)" y="0" x="0" id="text-entity-otpType-3712e031-2ed0-57a5-a07a-7ed81185bb8c-attr-2-type" class="er entityLabel">SIGNUP</text><rect height="22" width="96" y="46" x="96" class="er attributeBoxEven"/><text style="dominant-baseline: middle; font-size: 10.2px;" transform="translate(101,57)" y="0" x="0" id="text-entity-otpType-3712e031-2ed0-57a5-a07a-7ed81185bb8c-attr-2-name" class="er entityLabel">SIGNUP</text><rect height="22" width="96" y="68" x="0" class="er attributeBoxOdd"/><text style="dominant-baseline: middle; font-size: 10.2px;" transform="translate(5,79)" y="0" x="0" id="text-entity-otpType-3712e031-2ed0-57a5-a07a-7ed81185bb8c-attr-3-type" class="er entityLabel">LOGIN</text><rect height="22" width="96" y="68" x="96" class="er attributeBoxOdd"/><text style="dominant-baseline: middle; font-size: 10.2px;" transform="translate(101,79)" y="0" x="0" id="text-entity-otpType-3712e031-2ed0-57a5-a07a-7ed81185bb8c-attr-3-name" class="er entityLabel">LOGIN</text></g><g transform="translate(466.39453125,881.5 )" id="entity-otpStatus-730bb315-045a-5a8f-9da9-0702497e0573"><rect height="90" width="131.921875" y="0" x="0" class="er entityBox"/><text style="dominant-baseline: middle; text-anchor: middle; font-size: 12px;" transform="translate(65.9609375,12)" y="0" x="0" id="text-entity-otpStatus-730bb315-045a-5a8f-9da9-0702497e0573" class="er entityLabel">otpStatus</text><rect height="22" width="65.9609375" y="24" x="0" class="er attributeBoxOdd"/><text style="dominant-baseline: middle; font-size: 10.2px;" transform="translate(5,35)" y="0" x="0" id="text-entity-otpStatus-730bb315-045a-5a8f-9da9-0702497e0573-attr-1-type" class="er entityLabel">ACTIVE</text><rect height="22" width="65.9609375" y="24" x="65.9609375" class="er attributeBoxOdd"/><text style="dominant-baseline: middle; font-size: 10.2px;" transform="translate(70.9609375,35)" y="0" x="0" id="text-entity-otpStatus-730bb315-045a-5a8f-9da9-0702497e0573-attr-1-name" class="er entityLabel">ACTIVE</text><rect height="22" width="65.9609375" y="46" x="0" class="er attributeBoxEven"/><text style="dominant-baseline: middle; font-size: 10.2px;" transform="translate(5,57)" y="0" x="0" id="text-entity-otpStatus-730bb315-045a-5a8f-9da9-0702497e0573-attr-2-type" class="er entityLabel">INACTIVE</text><rect height="22" width="65.9609375" y="46" x="65.9609375" class="er attributeBoxEven"/><text style="dominant-baseline: middle; font-size: 10.2px;" transform="translate(70.9609375,57)" y="0" x="0" id="text-entity-otpStatus-730bb315-045a-5a8f-9da9-0702497e0573-attr-2-name" class="er entityLabel">INACTIVE</text><rect height="22" width="65.9609375" y="68" x="0" class="er attributeBoxOdd"/><text style="dominant-baseline: middle; font-size: 10.2px;" transform="translate(5,79)" y="0" x="0" id="text-entity-otpStatus-730bb315-045a-5a8f-9da9-0702497e0573-attr-3-type" class="er entityLabel">INPROGRESS</text><rect height="22" width="65.9609375" y="68" x="65.9609375" class="er attributeBoxOdd"/><text style="dominant-baseline: middle; font-size: 10.2px;" transform="translate(70.9609375,79)" y="0" x="0" id="text-entity-otpStatus-730bb315-045a-5a8f-9da9-0702497e0573-attr-3-name" class="er entityLabel">INPROGRESS</text></g><g transform="translate(401.375,20 )" id="entity-Role-8dbdbbc4-0419-5464-aae6-f142fb2ece67"><rect height="68.5" width="100" y="0" x="0" class="er entityBox"/><text style="dominant-baseline: middle; text-anchor: middle; font-size: 12px;" transform="translate(50,12)" y="0" x="0" id="text-entity-Role-8dbdbbc4-0419-5464-aae6-f142fb2ece67" class="er entityLabel">Role</text><rect height="22.5" width="38.526041666666664" y="24" x="0" class="er attributeBoxOdd"/><text style="dominant-baseline: middle; font-size: 10.2px;" transform="translate(5,35.25)" y="0" x="0" id="text-entity-Role-8dbdbbc4-0419-5464-aae6-f142fb2ece67-attr-1-type" class="er entityLabel">Int</text><rect height="22.5" width="36.971354166666664" y="24" x="38.526041666666664" class="er attributeBoxOdd"/><text style="dominant-baseline: middle; font-size: 10.2px;" transform="translate(43.526041666666664,35.25)" y="0" x="0" id="text-entity-Role-8dbdbbc4-0419-5464-aae6-f142fb2ece67-attr-1-name" class="er entityLabel">id</text><rect height="22.5" width="24.502604166666668" y="24" x="75.49739583333333" class="er attributeBoxOdd"/><text style="dominant-baseline: middle; font-size: 10.2px;" transform="translate(80.49739583333333,35.25)" y="0" x="0" id="text-entity-Role-8dbdbbc4-0419-5464-aae6-f142fb2ece67-attr-1-comment" class="er entityLabel">🗝️</text><rect height="22" width="38.526041666666664" y="46.5" x="0" class="er attributeBoxEven"/><text style="dominant-baseline: middle; font-size: 10.2px;" transform="translate(5,57.5)" y="0" x="0" id="text-entity-Role-8dbdbbc4-0419-5464-aae6-f142fb2ece67-attr-2-type" class="er entityLabel">String</text><rect height="22" width="36.971354166666664" y="46.5" x="38.526041666666664" class="er attributeBoxEven"/><text style="dominant-baseline: middle; font-size: 10.2px;" transform="translate(43.526041666666664,57.5)" y="0" x="0" id="text-entity-Role-8dbdbbc4-0419-5464-aae6-f142fb2ece67-attr-2-name" class="er entityLabel">name</text><rect height="22" width="24.502604166666668" y="46.5" x="75.49739583333333" class="er attributeBoxEven"/><text style="dominant-baseline: middle; font-size: 10.2px;" transform="translate(80.49739583333333,57.5)" y="0" x="0" id="text-entity-Role-8dbdbbc4-0419-5464-aae6-f142fb2ece67-attr-2-comment" class="er entityLabel"/></g><g transform="translate(373.046875,188.5 )" id="entity-User-818c511a-4a32-5484-ba70-875d765a9175"><rect height="246" width="156.65625" y="0" x="0" class="er entityBox"/><text style="dominant-baseline: middle; text-anchor: middle; font-size: 12px;" transform="translate(78.328125,12)" y="0" x="0" id="text-entity-User-818c511a-4a32-5484-ba70-875d765a9175" class="er entityLabel">User</text><rect height="22.5" width="57.2890625" y="24" x="0" class="er attributeBoxOdd"/><text style="dominant-baseline: middle; font-size: 10.2px;" transform="translate(5,35.25)" y="0" x="0" id="text-entity-User-818c511a-4a32-5484-ba70-875d765a9175-attr-1-type" class="er entityLabel">Int</text><rect height="22.5" width="76.8671875" y="24" x="57.2890625" class="er attributeBoxOdd"/><text style="dominant-baseline: middle; font-size: 10.2px;" transform="translate(62.2890625,35.25)" y="0" x="0" id="text-entity-User-818c511a-4a32-5484-ba70-875d765a9175-attr-1-name" class="er entityLabel">id</text><rect height="22.5" width="22.5" y="24" x="134.15625" class="er attributeBoxOdd"/><text style="dominant-baseline: middle; font-size: 10.2px;" transform="translate(139.15625,35.25)" y="0" x="0" id="text-entity-User-818c511a-4a32-5484-ba70-875d765a9175-attr-1-comment" class="er entityLabel">🗝️</text><rect height="22" width="57.2890625" y="46.5" x="0" class="er attributeBoxEven"/><text style="dominant-baseline: middle; font-size: 10.2px;" transform="translate(5,57.5)" y="0" x="0" id="text-entity-User-818c511a-4a32-5484-ba70-875d765a9175-attr-2-type" class="er entityLabel">String</text><rect height="22" width="76.8671875" y="46.5" x="57.2890625" class="er attributeBoxEven"/><text style="dominant-baseline: middle; font-size: 10.2px;" transform="translate(62.2890625,57.5)" y="0" x="0" id="text-entity-User-818c511a-4a32-5484-ba70-875d765a9175-attr-2-name" class="er entityLabel">name</text><rect height="22" width="22.5" y="46.5" x="134.15625" class="er attributeBoxEven"/><text style="dominant-baseline: middle; font-size: 10.2px;" transform="translate(139.15625,57.5)" y="0" x="0" id="text-entity-User-818c511a-4a32-5484-ba70-875d765a9175-attr-2-comment" class="er entityLabel"/><rect height="22.5" width="57.2890625" y="68.5" x="0" class="er attributeBoxOdd"/><text style="dominant-baseline: middle; font-size: 10.2px;" transform="translate(5,79.75)" y="0" x="0" id="text-entity-User-818c511a-4a32-5484-ba70-875d765a9175-attr-3-type" class="er entityLabel">String</text><rect height="22.5" width="76.8671875" y="68.5" x="57.2890625" class="er attributeBoxOdd"/><text style="dominant-baseline: middle; font-size: 10.2px;" transform="translate(62.2890625,79.75)" y="0" x="0" id="text-entity-User-818c511a-4a32-5484-ba70-875d765a9175-attr-3-name" class="er entityLabel">profilePic</text><rect height="22.5" width="22.5" y="68.5" x="134.15625" class="er attributeBoxOdd"/><text style="dominant-baseline: middle; font-size: 10.2px;" transform="translate(139.15625,79.75)" y="0" x="0" id="text-entity-User-818c511a-4a32-5484-ba70-875d765a9175-attr-3-comment" class="er entityLabel">❓</text><rect height="22" width="57.2890625" y="91" x="0" class="er attributeBoxEven"/><text style="dominant-baseline: middle; font-size: 10.2px;" transform="translate(5,102)" y="0" x="0" id="text-entity-User-818c511a-4a32-5484-ba70-875d765a9175-attr-4-type" class="er entityLabel">String</text><rect height="22" width="76.8671875" y="91" x="57.2890625" class="er attributeBoxEven"/><text style="dominant-baseline: middle; font-size: 10.2px;" transform="translate(62.2890625,102)" y="0" x="0" id="text-entity-User-818c511a-4a32-5484-ba70-875d765a9175-attr-4-name" class="er entityLabel">email</text><rect height="22" width="22.5" y="91" x="134.15625" class="er attributeBoxEven"/><text style="dominant-baseline: middle; font-size: 10.2px;" transform="translate(139.15625,102)" y="0" x="0" id="text-entity-User-818c511a-4a32-5484-ba70-875d765a9175-attr-4-comment" class="er entityLabel"/><rect height="22.5" width="57.2890625" y="113" x="0" class="er attributeBoxOdd"/><text style="dominant-baseline: middle; font-size: 10.2px;" transform="translate(5,124.25)" y="0" x="0" id="text-entity-User-818c511a-4a32-5484-ba70-875d765a9175-attr-5-type" class="er entityLabel">String</text><rect height="22.5" width="76.8671875" y="113" x="57.2890625" class="er attributeBoxOdd"/><text style="dominant-baseline: middle; font-size: 10.2px;" transform="translate(62.2890625,124.25)" y="0" x="0" id="text-entity-User-818c511a-4a32-5484-ba70-875d765a9175-attr-5-name" class="er entityLabel">mobileNumber</text><rect height="22.5" width="22.5" y="113" x="134.15625" class="er attributeBoxOdd"/><text style="dominant-baseline: middle; font-size: 10.2px;" transform="translate(139.15625,124.25)" y="0" x="0" id="text-entity-User-818c511a-4a32-5484-ba70-875d765a9175-attr-5-comment" class="er entityLabel">❓</text><rect height="22" width="57.2890625" y="135.5" x="0" class="er attributeBoxEven"/><text style="dominant-baseline: middle; font-size: 10.2px;" transform="translate(5,146.5)" y="0" x="0" id="text-entity-User-818c511a-4a32-5484-ba70-875d765a9175-attr-6-type" class="er entityLabel">String</text><rect height="22" width="76.8671875" y="135.5" x="57.2890625" class="er attributeBoxEven"/><text style="dominant-baseline: middle; font-size: 10.2px;" transform="translate(62.2890625,146.5)" y="0" x="0" id="text-entity-User-818c511a-4a32-5484-ba70-875d765a9175-attr-6-name" class="er entityLabel">password</text><rect height="22" width="22.5" y="135.5" x="134.15625" class="er attributeBoxEven"/><text style="dominant-baseline: middle; font-size: 10.2px;" transform="translate(139.15625,146.5)" y="0" x="0" id="text-entity-User-818c511a-4a32-5484-ba70-875d765a9175-attr-6-comment" class="er entityLabel"/><rect height="22.5" width="57.2890625" y="157.5" x="0" class="er attributeBoxOdd"/><text style="dominant-baseline: middle; font-size: 10.2px;" transform="translate(5,168.75)" y="0" x="0" id="text-entity-User-818c511a-4a32-5484-ba70-875d765a9175-attr-7-type" class="er entityLabel">String</text><rect height="22.5" width="76.8671875" y="157.5" x="57.2890625" class="er attributeBoxOdd"/><text style="dominant-baseline: middle; font-size: 10.2px;" transform="translate(62.2890625,168.75)" y="0" x="0" id="text-entity-User-818c511a-4a32-5484-ba70-875d765a9175-attr-7-name" class="er entityLabel">deviceToken</text><rect height="22.5" width="22.5" y="157.5" x="134.15625" class="er attributeBoxOdd"/><text style="dominant-baseline: middle; font-size: 10.2px;" transform="translate(139.15625,168.75)" y="0" x="0" id="text-entity-User-818c511a-4a32-5484-ba70-875d765a9175-attr-7-comment" class="er entityLabel">❓</text><rect height="22" width="57.2890625" y="180" x="0" class="er attributeBoxEven"/><text style="dominant-baseline: middle; font-size: 10.2px;" transform="translate(5,191)" y="0" x="0" id="text-entity-User-818c511a-4a32-5484-ba70-875d765a9175-attr-8-type" class="er entityLabel">userStatus</text><rect height="22" width="76.8671875" y="180" x="57.2890625" class="er attributeBoxEven"/><text style="dominant-baseline: middle; font-size: 10.2px;" transform="translate(62.2890625,191)" y="0" x="0" id="text-entity-User-818c511a-4a32-5484-ba70-875d765a9175-attr-8-name" class="er entityLabel">status</text><rect height="22" width="22.5" y="180" x="134.15625" class="er attributeBoxEven"/><text style="dominant-baseline: middle; font-size: 10.2px;" transform="translate(139.15625,191)" y="0" x="0" id="text-entity-User-818c511a-4a32-5484-ba70-875d765a9175-attr-8-comment" class="er entityLabel"/><rect height="22" width="57.2890625" y="202" x="0" class="er attributeBoxOdd"/><text style="dominant-baseline: middle; font-size: 10.2px;" transform="translate(5,213)" y="0" x="0" id="text-entity-User-818c511a-4a32-5484-ba70-875d765a9175-attr-9-type" class="er entityLabel">DateTime</text><rect height="22" width="76.8671875" y="202" x="57.2890625" class="er attributeBoxOdd"/><text style="dominant-baseline: middle; font-size: 10.2px;" transform="translate(62.2890625,213)" y="0" x="0" id="text-entity-User-818c511a-4a32-5484-ba70-875d765a9175-attr-9-name" class="er entityLabel">createdAt</text><rect height="22" width="22.5" y="202" x="134.15625" class="er attributeBoxOdd"/><text style="dominant-baseline: middle; font-size: 10.2px;" transform="translate(139.15625,213)" y="0" x="0" id="text-entity-User-818c511a-4a32-5484-ba70-875d765a9175-attr-9-comment" class="er entityLabel"/><rect height="22" width="57.2890625" y="224" x="0" class="er attributeBoxEven"/><text style="dominant-baseline: middle; font-size: 10.2px;" transform="translate(5,235)" y="0" x="0" id="text-entity-User-818c511a-4a32-5484-ba70-875d765a9175-attr-10-type" class="er entityLabel">DateTime</text><rect height="22" width="76.8671875" y="224" x="57.2890625" class="er attributeBoxEven"/><text style="dominant-baseline: middle; font-size: 10.2px;" transform="translate(62.2890625,235)" y="0" x="0" id="text-entity-User-818c511a-4a32-5484-ba70-875d765a9175-attr-10-name" class="er entityLabel">updatedAt</text><rect height="22" width="22.5" y="224" x="134.15625" class="er attributeBoxEven"/><text style="dominant-baseline: middle; font-size: 10.2px;" transform="translate(139.15625,235)" y="0" x="0" id="text-entity-User-818c511a-4a32-5484-ba70-875d765a9175-attr-10-comment" class="er entityLabel"/></g><g transform="translate(334.46875,579.75 )" id="entity-Otp-9529a905-ae0e-51e6-ad50-21691eaea609"><rect height="156.5" width="133.8125" y="0" x="0" class="er entityBox"/><text style="dominant-baseline: middle; text-anchor: middle; font-size: 12px;" transform="translate(66.90625,12)" y="0" x="0" id="text-entity-Otp-9529a905-ae0e-51e6-ad50-21691eaea609" class="er entityLabel">Otp</text><rect height="22.5" width="53.6640625" y="24" x="0" class="er attributeBoxOdd"/><text style="dominant-baseline: middle; font-size: 10.2px;" transform="translate(5,35.25)" y="0" x="0" id="text-entity-Otp-9529a905-ae0e-51e6-ad50-21691eaea609-attr-1-type" class="er entityLabel">Int</text><rect height="22.5" width="57.6484375" y="24" x="53.6640625" class="er attributeBoxOdd"/><text style="dominant-baseline: middle; font-size: 10.2px;" transform="translate(58.6640625,35.25)" y="0" x="0" id="text-entity-Otp-9529a905-ae0e-51e6-ad50-21691eaea609-attr-1-name" class="er entityLabel">id</text><rect height="22.5" width="22.5" y="24" x="111.3125" class="er attributeBoxOdd"/><text style="dominant-baseline: middle; font-size: 10.2px;" transform="translate(116.3125,35.25)" y="0" x="0" id="text-entity-Otp-9529a905-ae0e-51e6-ad50-21691eaea609-attr-1-comment" class="er entityLabel">🗝️</text><rect height="22" width="53.6640625" y="46.5" x="0" class="er attributeBoxEven"/><text style="dominant-baseline: middle; font-size: 10.2px;" transform="translate(5,57.5)" y="0" x="0" id="text-entity-Otp-9529a905-ae0e-51e6-ad50-21691eaea609-attr-2-type" class="er entityLabel">String</text><rect height="22" width="57.6484375" y="46.5" x="53.6640625" class="er attributeBoxEven"/><text style="dominant-baseline: middle; font-size: 10.2px;" transform="translate(58.6640625,57.5)" y="0" x="0" id="text-entity-Otp-9529a905-ae0e-51e6-ad50-21691eaea609-attr-2-name" class="er entityLabel">otp</text><rect height="22" width="22.5" y="46.5" x="111.3125" class="er attributeBoxEven"/><text style="dominant-baseline: middle; font-size: 10.2px;" transform="translate(116.3125,57.5)" y="0" x="0" id="text-entity-Otp-9529a905-ae0e-51e6-ad50-21691eaea609-attr-2-comment" class="er entityLabel"/><rect height="22" width="53.6640625" y="68.5" x="0" class="er attributeBoxOdd"/><text style="dominant-baseline: middle; font-size: 10.2px;" transform="translate(5,79.5)" y="0" x="0" id="text-entity-Otp-9529a905-ae0e-51e6-ad50-21691eaea609-attr-3-type" class="er entityLabel">otpType</text><rect height="22" width="57.6484375" y="68.5" x="53.6640625" class="er attributeBoxOdd"/><text style="dominant-baseline: middle; font-size: 10.2px;" transform="translate(58.6640625,79.5)" y="0" x="0" id="text-entity-Otp-9529a905-ae0e-51e6-ad50-21691eaea609-attr-3-name" class="er entityLabel">type</text><rect height="22" width="22.5" y="68.5" x="111.3125" class="er attributeBoxOdd"/><text style="dominant-baseline: middle; font-size: 10.2px;" transform="translate(116.3125,79.5)" y="0" x="0" id="text-entity-Otp-9529a905-ae0e-51e6-ad50-21691eaea609-attr-3-comment" class="er entityLabel"/><rect height="22" width="53.6640625" y="90.5" x="0" class="er attributeBoxEven"/><text style="dominant-baseline: middle; font-size: 10.2px;" transform="translate(5,101.5)" y="0" x="0" id="text-entity-Otp-9529a905-ae0e-51e6-ad50-21691eaea609-attr-4-type" class="er entityLabel">otpStatus</text><rect height="22" width="57.6484375" y="90.5" x="53.6640625" class="er attributeBoxEven"/><text style="dominant-baseline: middle; font-size: 10.2px;" transform="translate(58.6640625,101.5)" y="0" x="0" id="text-entity-Otp-9529a905-ae0e-51e6-ad50-21691eaea609-attr-4-name" class="er entityLabel">status</text><rect height="22" width="22.5" y="90.5" x="111.3125" class="er attributeBoxEven"/><text style="dominant-baseline: middle; font-size: 10.2px;" transform="translate(116.3125,101.5)" y="0" x="0" id="text-entity-Otp-9529a905-ae0e-51e6-ad50-21691eaea609-attr-4-comment" class="er entityLabel"/><rect height="22" width="53.6640625" y="112.5" x="0" class="er attributeBoxOdd"/><text style="dominant-baseline: middle; font-size: 10.2px;" transform="translate(5,123.5)" y="0" x="0" id="text-entity-Otp-9529a905-ae0e-51e6-ad50-21691eaea609-attr-5-type" class="er entityLabel">DateTime</text><rect height="22" width="57.6484375" y="112.5" x="53.6640625" class="er attributeBoxOdd"/><text style="dominant-baseline: middle; font-size: 10.2px;" transform="translate(58.6640625,123.5)" y="0" x="0" id="text-entity-Otp-9529a905-ae0e-51e6-ad50-21691eaea609-attr-5-name" class="er entityLabel">createdAt</text><rect height="22" width="22.5" y="112.5" x="111.3125" class="er attributeBoxOdd"/><text style="dominant-baseline: middle; font-size: 10.2px;" transform="translate(116.3125,123.5)" y="0" x="0" id="text-entity-Otp-9529a905-ae0e-51e6-ad50-21691eaea609-attr-5-comment" class="er entityLabel"/><rect height="22" width="53.6640625" y="134.5" x="0" class="er attributeBoxEven"/><text style="dominant-baseline: middle; font-size: 10.2px;" transform="translate(5,145.5)" y="0" x="0" id="text-entity-Otp-9529a905-ae0e-51e6-ad50-21691eaea609-attr-6-type" class="er entityLabel">DateTime</text><rect height="22" width="57.6484375" y="134.5" x="53.6640625" class="er attributeBoxEven"/><text style="dominant-baseline: middle; font-size: 10.2px;" transform="translate(58.6640625,145.5)" y="0" x="0" id="text-entity-Otp-9529a905-ae0e-51e6-ad50-21691eaea609-attr-6-name" class="er entityLabel">updatedAt</text><rect height="22" width="22.5" y="134.5" x="111.3125" class="er attributeBoxEven"/><text style="dominant-baseline: middle; font-size: 10.2px;" transform="translate(116.3125,145.5)" y="0" x="0" id="text-entity-Otp-9529a905-ae0e-51e6-ad50-21691eaea609-attr-6-comment" class="er entityLabel"/></g><g transform="translate(568.28125,534.5 )" id="entity-Subscription-57a38d08-83cf-5b3e-8b7c-3deeaeab3fc2"><rect height="247" width="182.90625" y="0" x="0" class="er entityBox"/><text style="dominant-baseline: middle; text-anchor: middle; font-size: 12px;" transform="translate(91.453125,12)" y="0" x="0" id="text-entity-Subscription-57a38d08-83cf-5b3e-8b7c-3deeaeab3fc2" class="er entityLabel">Subscription</text><rect height="22.5" width="53.6640625" y="24" x="0" class="er attributeBoxOdd"/><text style="dominant-baseline: middle; font-size: 10.2px;" transform="translate(5,35.25)" y="0" x="0" id="text-entity-Subscription-57a38d08-83cf-5b3e-8b7c-3deeaeab3fc2-attr-1-type" class="er entityLabel">Int</text><rect height="22.5" width="106.7421875" y="24" x="53.6640625" class="er attributeBoxOdd"/><text style="dominant-baseline: middle; font-size: 10.2px;" transform="translate(58.6640625,35.25)" y="0" x="0" id="text-entity-Subscription-57a38d08-83cf-5b3e-8b7c-3deeaeab3fc2-attr-1-name" class="er entityLabel">id</text><rect height="22.5" width="22.5" y="24" x="160.40625" class="er attributeBoxOdd"/><text style="dominant-baseline: middle; font-size: 10.2px;" transform="translate(165.40625,35.25)" y="0" x="0" id="text-entity-Subscription-57a38d08-83cf-5b3e-8b7c-3deeaeab3fc2-attr-1-comment" class="er entityLabel">🗝️</text><rect height="22.5" width="53.6640625" y="46.5" x="0" class="er attributeBoxEven"/><text style="dominant-baseline: middle; font-size: 10.2px;" transform="translate(5,57.75)" y="0" x="0" id="text-entity-Subscription-57a38d08-83cf-5b3e-8b7c-3deeaeab3fc2-attr-2-type" class="er entityLabel">Int</text><rect height="22.5" width="106.7421875" y="46.5" x="53.6640625" class="er attributeBoxEven"/><text style="dominant-baseline: middle; font-size: 10.2px;" transform="translate(58.6640625,57.75)" y="0" x="0" id="text-entity-Subscription-57a38d08-83cf-5b3e-8b7c-3deeaeab3fc2-attr-2-name" class="er entityLabel">storePromotionId</text><rect height="22.5" width="22.5" y="46.5" x="160.40625" class="er attributeBoxEven"/><text style="dominant-baseline: middle; font-size: 10.2px;" transform="translate(165.40625,57.75)" y="0" x="0" id="text-entity-Subscription-57a38d08-83cf-5b3e-8b7c-3deeaeab3fc2-attr-2-comment" class="er entityLabel">❓</text><rect height="22" width="53.6640625" y="69" x="0" class="er attributeBoxOdd"/><text style="dominant-baseline: middle; font-size: 10.2px;" transform="translate(5,80)" y="0" x="0" id="text-entity-Subscription-57a38d08-83cf-5b3e-8b7c-3deeaeab3fc2-attr-3-type" class="er entityLabel">Boolean</text><rect height="22" width="106.7421875" y="69" x="53.6640625" class="er attributeBoxOdd"/><text style="dominant-baseline: middle; font-size: 10.2px;" transform="translate(58.6640625,80)" y="0" x="0" id="text-entity-Subscription-57a38d08-83cf-5b3e-8b7c-3deeaeab3fc2-attr-3-name" class="er entityLabel">autoProductRenew</text><rect height="22" width="22.5" y="69" x="160.40625" class="er attributeBoxOdd"/><text style="dominant-baseline: middle; font-size: 10.2px;" transform="translate(165.40625,80)" y="0" x="0" id="text-entity-Subscription-57a38d08-83cf-5b3e-8b7c-3deeaeab3fc2-attr-3-comment" class="er entityLabel"/><rect height="22" width="53.6640625" y="91" x="0" class="er attributeBoxEven"/><text style="dominant-baseline: middle; font-size: 10.2px;" transform="translate(5,102)" y="0" x="0" id="text-entity-Subscription-57a38d08-83cf-5b3e-8b7c-3deeaeab3fc2-attr-4-type" class="er entityLabel">Boolean</text><rect height="22" width="106.7421875" y="91" x="53.6640625" class="er attributeBoxEven"/><text style="dominant-baseline: middle; font-size: 10.2px;" transform="translate(58.6640625,102)" y="0" x="0" id="text-entity-Subscription-57a38d08-83cf-5b3e-8b7c-3deeaeab3fc2-attr-4-name" class="er entityLabel">autoStoreRenew</text><rect height="22" width="22.5" y="91" x="160.40625" class="er attributeBoxEven"/><text style="dominant-baseline: middle; font-size: 10.2px;" transform="translate(165.40625,102)" y="0" x="0" id="text-entity-Subscription-57a38d08-83cf-5b3e-8b7c-3deeaeab3fc2-attr-4-comment" class="er entityLabel"/><rect height="22.5" width="53.6640625" y="113" x="0" class="er attributeBoxOdd"/><text style="dominant-baseline: middle; font-size: 10.2px;" transform="translate(5,124.25)" y="0" x="0" id="text-entity-Subscription-57a38d08-83cf-5b3e-8b7c-3deeaeab3fc2-attr-5-type" class="er entityLabel">DateTime</text><rect height="22.5" width="106.7421875" y="113" x="53.6640625" class="er attributeBoxOdd"/><text style="dominant-baseline: middle; font-size: 10.2px;" transform="translate(58.6640625,124.25)" y="0" x="0" id="text-entity-Subscription-57a38d08-83cf-5b3e-8b7c-3deeaeab3fc2-attr-5-name" class="er entityLabel">planSubscriptionDate</text><rect height="22.5" width="22.5" y="113" x="160.40625" class="er attributeBoxOdd"/><text style="dominant-baseline: middle; font-size: 10.2px;" transform="translate(165.40625,124.25)" y="0" x="0" id="text-entity-Subscription-57a38d08-83cf-5b3e-8b7c-3deeaeab3fc2-attr-5-comment" class="er entityLabel">❓</text><rect height="22.5" width="53.6640625" y="135.5" x="0" class="er attributeBoxEven"/><text style="dominant-baseline: middle; font-size: 10.2px;" transform="translate(5,146.75)" y="0" x="0" id="text-entity-Subscription-57a38d08-83cf-5b3e-8b7c-3deeaeab3fc2-attr-6-type" class="er entityLabel">DateTime</text><rect height="22.5" width="106.7421875" y="135.5" x="53.6640625" class="er attributeBoxEven"/><text style="dominant-baseline: middle; font-size: 10.2px;" transform="translate(58.6640625,146.75)" y="0" x="0" id="text-entity-Subscription-57a38d08-83cf-5b3e-8b7c-3deeaeab3fc2-attr-6-name" class="er entityLabel">planExpiryDate</text><rect height="22.5" width="22.5" y="135.5" x="160.40625" class="er attributeBoxEven"/><text style="dominant-baseline: middle; font-size: 10.2px;" transform="translate(165.40625,146.75)" y="0" x="0" id="text-entity-Subscription-57a38d08-83cf-5b3e-8b7c-3deeaeab3fc2-attr-6-comment" class="er entityLabel">❓</text><rect height="22.5" width="53.6640625" y="158" x="0" class="er attributeBoxOdd"/><text style="dominant-baseline: middle; font-size: 10.2px;" transform="translate(5,169.25)" y="0" x="0" id="text-entity-Subscription-57a38d08-83cf-5b3e-8b7c-3deeaeab3fc2-attr-7-type" class="er entityLabel">DateTime</text><rect height="22.5" width="106.7421875" y="158" x="53.6640625" class="er attributeBoxOdd"/><text style="dominant-baseline: middle; font-size: 10.2px;" transform="translate(58.6640625,169.25)" y="0" x="0" id="text-entity-Subscription-57a38d08-83cf-5b3e-8b7c-3deeaeab3fc2-attr-7-name" class="er entityLabel">subscriptionDate</text><rect height="22.5" width="22.5" y="158" x="160.40625" class="er attributeBoxOdd"/><text style="dominant-baseline: middle; font-size: 10.2px;" transform="translate(165.40625,169.25)" y="0" x="0" id="text-entity-Subscription-57a38d08-83cf-5b3e-8b7c-3deeaeab3fc2-attr-7-comment" class="er entityLabel">❓</text><rect height="22.5" width="53.6640625" y="180.5" x="0" class="er attributeBoxEven"/><text style="dominant-baseline: middle; font-size: 10.2px;" transform="translate(5,191.75)" y="0" x="0" id="text-entity-Subscription-57a38d08-83cf-5b3e-8b7c-3deeaeab3fc2-attr-8-type" class="er entityLabel">DateTime</text><rect height="22.5" width="106.7421875" y="180.5" x="53.6640625" class="er attributeBoxEven"/><text style="dominant-baseline: middle; font-size: 10.2px;" transform="translate(58.6640625,191.75)" y="0" x="0" id="text-entity-Subscription-57a38d08-83cf-5b3e-8b7c-3deeaeab3fc2-attr-8-name" class="er entityLabel">expiryDate</text><rect height="22.5" width="22.5" y="180.5" x="160.40625" class="er attributeBoxEven"/><text style="dominant-baseline: middle; font-size: 10.2px;" transform="translate(165.40625,191.75)" y="0" x="0" id="text-entity-Subscription-57a38d08-83cf-5b3e-8b7c-3deeaeab3fc2-attr-8-comment" class="er entityLabel">❓</text><rect height="22" width="53.6640625" y="203" x="0" class="er attributeBoxOdd"/><text style="dominant-baseline: middle; font-size: 10.2px;" transform="translate(5,214)" y="0" x="0" id="text-entity-Subscription-57a38d08-83cf-5b3e-8b7c-3deeaeab3fc2-attr-9-type" class="er entityLabel">DateTime</text><rect height="22" width="106.7421875" y="203" x="53.6640625" class="er attributeBoxOdd"/><text style="dominant-baseline: middle; font-size: 10.2px;" transform="translate(58.6640625,214)" y="0" x="0" id="text-entity-Subscription-57a38d08-83cf-5b3e-8b7c-3deeaeab3fc2-attr-9-name" class="er entityLabel">createdAt</text><rect height="22" width="22.5" y="203" x="160.40625" class="er attributeBoxOdd"/><text style="dominant-baseline: middle; font-size: 10.2px;" transform="translate(165.40625,214)" y="0" x="0" id="text-entity-Subscription-57a38d08-83cf-5b3e-8b7c-3deeaeab3fc2-attr-9-comment" class="er entityLabel"/><rect height="22" width="53.6640625" y="225" x="0" class="er attributeBoxEven"/><text style="dominant-baseline: middle; font-size: 10.2px;" transform="translate(5,236)" y="0" x="0" id="text-entity-Subscription-57a38d08-83cf-5b3e-8b7c-3deeaeab3fc2-attr-10-type" class="er entityLabel">DateTime</text><rect height="22" width="106.7421875" y="225" x="53.6640625" class="er attributeBoxEven"/><text style="dominant-baseline: middle; font-size: 10.2px;" transform="translate(58.6640625,236)" y="0" x="0" id="text-entity-Subscription-57a38d08-83cf-5b3e-8b7c-3deeaeab3fc2-attr-10-name" class="er entityLabel">updatedAt</text><rect height="22" width="22.5" y="225" x="160.40625" class="er attributeBoxEven"/><text style="dominant-baseline: middle; font-size: 10.2px;" transform="translate(165.40625,236)" y="0" x="0" id="text-entity-Subscription-57a38d08-83cf-5b3e-8b7c-3deeaeab3fc2-attr-10-comment" class="er entityLabel"/></g><rect height="14" width="27.484375" y="129.44615173339844" x="395.336181640625" class="er relationshipLabelBox"/><text style="text-anchor: middle; dominant-baseline: middle; font-size: 12px;" y="136.44615173339844" x="409.078369140625" id="rel1" class="er relationshipLabel">users</text><rect height="14" width="21.1875" y="129.44615173339844" x="483.077880859375" class="er relationshipLabelBox"/><text style="text-anchor: middle; dominant-baseline: middle; font-size: 12px;" y="136.44615173339844" x="493.671630859375" id="rel2" class="er relationshipLabel">role</text><rect height="14" width="66.1171875" y="439.79888916015625" x="178.23538208007812" class="er relationshipLabelBox"/><text style="text-anchor: middle; dominant-baseline: middle; font-size: 12px;" y="446.79888916015625" x="211.29397583007812" id="rel3" class="er relationshipLabel">enum:status</text><rect height="14" width="64.8515625" y="466.0458068847656" x="538.0396118164062" class="er relationshipLabelBox"/><text style="text-anchor: middle; dominant-baseline: middle; font-size: 12px;" y="473.0458068847656" x="570.4653930664062" id="rel4" class="er relationshipLabel">subscription</text><rect height="14" width="17.8828125" y="485.2077941894531" x="322.97747802734375" class="er relationshipLabelBox"/><text style="text-anchor: middle; dominant-baseline: middle; font-size: 12px;" y="492.2077941894531" x="331.91888427734375" id="rel5" class="er relationshipLabel">otp</text><rect height="14" width="22.625" y="501.102783203125" x="432.07769775390625" class="er relationshipLabelBox"/><text style="text-anchor: middle; dominant-baseline: middle; font-size: 12px;" y="508.102783203125" x="443.39019775390625" id="rel6" class="er relationshipLabel">user</text><rect height="14" width="57.9375" y="796.59423828125" x="264.9954528808594" class="er relationshipLabelBox"/><text style="text-anchor: middle; dominant-baseline: middle; font-size: 12px;" y="803.59423828125" x="293.9642028808594" id="rel7" class="er relationshipLabel">enum:type</text><rect height="14" width="66.1171875" y="796.59423828125" x="475.7272033691406" class="er relationshipLabelBox"/><text style="text-anchor: middle; dominant-baseline: middle; font-size: 12px;" y="803.59423828125" x="508.7857971191406" id="rel8" class="er relationshipLabel">enum:status</text><rect height="14" width="22.625" y="428.75885009765625" x="622.3030395507812" class="er relationshipLabelBox"/><text style="text-anchor: middle; dominant-baseline: middle; font-size: 12px;" y="435.75885009765625" x="633.6155395507812" id="rel9" class="er relationshipLabel">user</text></svg>